<?xml version="1.0" encoding="UTF-8" standalone="no"?>
<!DOCTYPE svg PUBLIC "-//W3C//DTD SVG 1.1//EN"
 "http://www.w3.org/Graphics/SVG/1.1/DTD/svg11.dtd">
<!-- Generated by graphviz version 2.36.0 (20140111.2315)
 -->
<!-- Title: controllers_diagram Pages: 1 -->
<svg width="533pt" height="555pt"
 viewBox="0.00 0.00 533.00 555.00" xmlns="http://www.w3.org/2000/svg" xmlns:xlink="http://www.w3.org/1999/xlink">
<g id="graph0" class="graph" transform="scale(1 1) rotate(0) translate(4 551)">
<title>controllers_diagram</title>
<polygon fill="none" stroke="none" points="-4,4 -4,-551 529,-551 529,4 -4,4"/>
<!-- _diagram_info -->
<g id="node1" class="node"><title>_diagram_info</title>
<text text-anchor="start" x="76" y="-454.6" font-family="Times,serif" font-size="13.00">Controllers diagram</text>
<text text-anchor="start" x="76" y="-440.6" font-family="Times,serif" font-size="13.00">Date: Oct 09 2016 &#45; 17:02</text>
<text text-anchor="start" x="76" y="-426.6" font-family="Times,serif" font-size="13.00">Migration version: 20161008142519</text>
<text text-anchor="start" x="76" y="-412.6" font-family="Times,serif" font-size="13.00">Generated by RailRoady 1.5.2</text>
<text text-anchor="start" x="76" y="-398.6" font-family="Times,serif" font-size="13.00">http://railroady.prestonlee.com</text>
</g>
<!-- StaticPagesController -->
<g id="node2" class="node"><title>StaticPagesController</title>
<path fill="none" stroke="black" d="M403,-408.5C403,-408.5 513,-408.5 513,-408.5 519,-408.5 525,-414.5 525,-420.5 525,-420.5 525,-534.5 525,-534.5 525,-540.5 519,-546.5 513,-546.5 513,-546.5 403,-546.5 403,-546.5 397,-546.5 391,-540.5 391,-534.5 391,-534.5 391,-420.5 391,-420.5 391,-414.5 397,-408.5 403,-408.5"/>
<text text-anchor="middle" x="458" y="-531.3" font-family="Times,serif" font-size="14.00">StaticPagesController</text>
<polyline fill="none" stroke="black" points="391,-523.5 525,-523.5 "/>
<text text-anchor="start" x="399" y="-508.3" font-family="Times,serif" font-size="14.00">about</text>
<text text-anchor="start" x="399" y="-493.3" font-family="Times,serif" font-size="14.00">content</text>
<text text-anchor="start" x="399" y="-478.3" font-family="Times,serif" font-size="14.00">help</text>
<text text-anchor="start" x="399" y="-463.3" font-family="Times,serif" font-size="14.00">home</text>
<polyline fill="none" stroke="black" points="391,-455.5 525,-455.5 "/>
<polyline fill="none" stroke="black" points="391,-431.5 525,-431.5 "/>
<text text-anchor="start" x="399" y="-416.3" font-family="Times,serif" font-size="14.00">_layout</text>
</g>
<!-- DisabilityToolsController -->
<g id="node3" class="node"><title>DisabilityToolsController</title>
<path fill="none" stroke="black" d="M148,-119.5C148,-119.5 280,-119.5 280,-119.5 286,-119.5 292,-125.5 292,-131.5 292,-131.5 292,-320.5 292,-320.5 292,-326.5 286,-332.5 280,-332.5 280,-332.5 148,-332.5 148,-332.5 142,-332.5 136,-326.5 136,-320.5 136,-320.5 136,-131.5 136,-131.5 136,-125.5 142,-119.5 148,-119.5"/>
<text text-anchor="middle" x="214" y="-317.3" font-family="Times,serif" font-size="14.00">DisabilityToolsController</text>
<polyline fill="none" stroke="black" points="136,-309.5 292,-309.5 "/>
<text text-anchor="start" x="144" y="-294.3" font-family="Times,serif" font-size="14.00">create</text>
<text text-anchor="start" x="144" y="-279.3" font-family="Times,serif" font-size="14.00">destroy</text>
<text text-anchor="start" x="144" y="-264.3" font-family="Times,serif" font-size="14.00">edit</text>
<text text-anchor="start" x="144" y="-249.3" font-family="Times,serif" font-size="14.00">index</text>
<text text-anchor="start" x="144" y="-234.3" font-family="Times,serif" font-size="14.00">new</text>
<text text-anchor="start" x="144" y="-219.3" font-family="Times,serif" font-size="14.00">show</text>
<text text-anchor="start" x="144" y="-204.3" font-family="Times,serif" font-size="14.00">update</text>
<polyline fill="none" stroke="black" points="136,-196.5 292,-196.5 "/>
<polyline fill="none" stroke="black" points="136,-172.5 292,-172.5 "/>
<text text-anchor="start" x="144" y="-157.3" font-family="Times,serif" font-size="14.00">_layout</text>
<text text-anchor="start" x="144" y="-142.3" font-family="Times,serif" font-size="14.00">disability_tool_params</text>
<text text-anchor="start" x="144" y="-127.3" font-family="Times,serif" font-size="14.00">set_disability_tool</text>
</g>
<!-- RollController -->
<g id="node4" class="node"><title>RollController</title>
<path fill="none" stroke="black" d="M12,-204.5C12,-204.5 83,-204.5 83,-204.5 89,-204.5 95,-210.5 95,-216.5 95,-216.5 95,-345.5 95,-345.5 95,-351.5 89,-357.5 83,-357.5 83,-357.5 12,-357.5 12,-357.5 6,-357.5 0,-351.5 0,-345.5 0,-345.5 0,-216.5 0,-216.5 0,-210.5 6,-204.5 12,-204.5"/>
<text text-anchor="middle" x="47.5" y="-342.3" font-family="Times,serif" font-size="14.00">RollController</text>
<polyline fill="none" stroke="black" points="0,-334.5 95,-334.5 "/>
<text text-anchor="start" x="8" y="-319.3" font-family="Times,serif" font-size="14.00">gambling</text>
<text text-anchor="start" x="8" y="-304.3" font-family="Times,serif" font-size="14.00">roll_params</text>
<text text-anchor="start" x="8" y="-289.3" font-family="Times,serif" font-size="14.00">rolling</text>
<text text-anchor="start" x="8" y="-274.3" font-family="Times,serif" font-size="14.00">send2</text>
<text text-anchor="start" x="8" y="-259.3" font-family="Times,serif" font-size="14.00">set_roll</text>
<polyline fill="none" stroke="black" points="0,-251.5 95,-251.5 "/>
<polyline fill="none" stroke="black" points="0,-227.5 95,-227.5 "/>
<text text-anchor="start" x="8" y="-212.3" font-family="Times,serif" font-size="14.00">_layout</text>
</g>
<!-- ApplicationController -->
<g id="node5" class="node"><title>ApplicationController</title>
<path fill="none" stroke="black" d="M335,-0.5C335,-0.5 447,-0.5 447,-0.5 453,-0.5 459,-6.5 459,-12.5 459,-12.5 459,-82.5 459,-82.5 459,-88.5 453,-94.5 447,-94.5 447,-94.5 335,-94.5 335,-94.5 329,-94.5 323,-88.5 323,-82.5 323,-82.5 323,-12.5 323,-12.5 323,-6.5 329,-0.5 335,-0.5"/>
<text text-anchor="middle" x="391" y="-79.3" font-family="Times,serif" font-size="14.00">ApplicationController</text>
<polyline fill="none" stroke="black" points="323,-71.5 459,-71.5 "/>
<polyline fill="none" stroke="black" points="323,-47.5 459,-47.5 "/>
<polyline fill="none" stroke="black" points="323,-23.5 459,-23.5 "/>
<text text-anchor="start" x="331" y="-8.3" font-family="Times,serif" font-size="14.00">_layout</text>
</g>
<!-- GamblesController -->
<g id="node6" class="node"><title>GamblesController</title>
<path fill="none" stroke="black" d="M335,-136.5C335,-136.5 432,-136.5 432,-136.5 438,-136.5 444,-142.5 444,-148.5 444,-148.5 444,-367.5 444,-367.5 444,-373.5 438,-379.5 432,-379.5 432,-379.5 335,-379.5 335,-379.5 329,-379.5 323,-373.5 323,-367.5 323,-367.5 323,-148.5 323,-148.5 323,-142.5 329,-136.5 335,-136.5"/>
<text text-anchor="middle" x="383.5" y="-364.3" font-family="Times,serif" font-size="14.00">GamblesController</text>
<polyline fill="none" stroke="black" points="323,-356.5 444,-356.5 "/>
<text text-anchor="start" x="331" y="-341.3" font-family="Times,serif" font-size="14.00">create</text>
<text text-anchor="start" x="331" y="-326.3" font-family="Times,serif" font-size="14.00">destroy</text>
<text text-anchor="start" x="331" y="-311.3" font-family="Times,serif" font-size="14.00">edit</text>
<text text-anchor="start" x="331" y="-296.3" font-family="Times,serif" font-size="14.00">gamble_params</text>
<text text-anchor="start" x="331" y="-281.3" font-family="Times,serif" font-size="14.00">gambling</text>
<text text-anchor="start" x="331" y="-266.3" font-family="Times,serif" font-size="14.00">index</text>
<text text-anchor="start" x="331" y="-251.3" font-family="Times,serif" font-size="14.00">new</text>
<text text-anchor="start" x="331" y="-236.3" font-family="Times,serif" font-size="14.00">send2</text>
<text text-anchor="start" x="331" y="-221.3" font-family="Times,serif" font-size="14.00">set_gamble</text>
<text text-anchor="start" x="331" y="-206.3" font-family="Times,serif" font-size="14.00">show</text>
<text text-anchor="start" x="331" y="-191.3" font-family="Times,serif" font-size="14.00">update</text>
<polyline fill="none" stroke="black" points="323,-183.5 444,-183.5 "/>
<polyline fill="none" stroke="black" points="323,-159.5 444,-159.5 "/>
<text text-anchor="start" x="331" y="-144.3" font-family="Times,serif" font-size="14.00">_layout</text>
</g>
<!-- UsersController -->
<g id="node7" class="node"><title>UsersController</title>
<path fill="none" stroke="black" d="M12,-51.5C12,-51.5 91,-51.5 91,-51.5 97,-51.5 103,-57.5 103,-63.5 103,-63.5 103,-162.5 103,-162.5 103,-168.5 97,-174.5 91,-174.5 91,-174.5 12,-174.5 12,-174.5 6,-174.5 0,-168.5 0,-162.5 0,-162.5 0,-63.5 0,-63.5 0,-57.5 6,-51.5 12,-51.5"/>
<text text-anchor="middle" x="51.5" y="-159.3" font-family="Times,serif" font-size="14.00">UsersController</text>
<polyline fill="none" stroke="black" points="0,-151.5 103,-151.5 "/>
<text text-anchor="start" x="8" y="-136.3" font-family="Times,serif" font-size="14.00">new</text>
<text text-anchor="start" x="8" y="-121.3" font-family="Times,serif" font-size="14.00">show</text>
<text text-anchor="start" x="8" y="-106.3" font-family="Times,serif" font-size="14.00">test</text>
<polyline fill="none" stroke="black" points="0,-98.5 103,-98.5 "/>
<polyline fill="none" stroke="black" points="0,-74.5 103,-74.5 "/>
<text text-anchor="start" x="8" y="-59.3" font-family="Times,serif" font-size="14.00">_layout</text>
</g>
</g>
</svg>
