<?xml version="1.0" encoding="UTF-8" standalone="no"?>
<!DOCTYPE svg PUBLIC "-//W3C//DTD SVG 1.1//EN"
 "http://www.w3.org/Graphics/SVG/1.1/DTD/svg11.dtd">
<!-- Generated by graphviz version 2.36.0 (20140111.2315)
 -->
<!-- Title: models_diagram Pages: 1 -->
<svg width="865pt" height="160pt"
 viewBox="0.00 0.00 865.00 160.00" xmlns="http://www.w3.org/2000/svg" xmlns:xlink="http://www.w3.org/1999/xlink">
<g id="graph0" class="graph" transform="scale(1 1) rotate(0) translate(4 156)">
<title>models_diagram</title>
<polygon fill="none" stroke="none" points="-4,4 -4,-156 861,-156 861,4 -4,4"/>
<!-- _diagram_info -->
<g id="node1" class="node"><title>_diagram_info</title>
<text text-anchor="start" x="7" y="-100.6" font-family="Times,serif" font-size="13.00">Models diagram</text>
<text text-anchor="start" x="7" y="-86.6" font-family="Times,serif" font-size="13.00">Date: Oct 09 2016 &#45; 17:02</text>
<text text-anchor="start" x="7" y="-72.6" font-family="Times,serif" font-size="13.00">Migration version: 20161008142519</text>
<text text-anchor="start" x="7" y="-58.6" font-family="Times,serif" font-size="13.00">Generated by RailRoady 1.5.2</text>
<text text-anchor="start" x="7" y="-44.6" font-family="Times,serif" font-size="13.00">http://railroady.prestonlee.com</text>
</g>
<!-- Gamble -->
<g id="node2" class="node"><title>Gamble</title>
<path fill="none" stroke="black" d="M243.5,-15.5C243.5,-15.5 350.5,-15.5 350.5,-15.5 356.5,-15.5 362.5,-21.5 362.5,-27.5 362.5,-27.5 362.5,-124.5 362.5,-124.5 362.5,-130.5 356.5,-136.5 350.5,-136.5 350.5,-136.5 243.5,-136.5 243.5,-136.5 237.5,-136.5 231.5,-130.5 231.5,-124.5 231.5,-124.5 231.5,-27.5 231.5,-27.5 231.5,-21.5 237.5,-15.5 243.5,-15.5"/>
<text text-anchor="middle" x="297" y="-121.3" font-family="Times,serif" font-size="14.00">Gamble</text>
<polyline fill="none" stroke="black" points="231.5,-113.5 362.5,-113.5 "/>
<text text-anchor="start" x="239.5" y="-98.3" font-family="Times,serif" font-size="14.00">id :INTEGER</text>
<text text-anchor="start" x="239.5" y="-83.3" font-family="Times,serif" font-size="14.00">amount :integer</text>
<text text-anchor="start" x="239.5" y="-68.3" font-family="Times,serif" font-size="14.00">created_at :datetime</text>
<text text-anchor="start" x="239.5" y="-53.3" font-family="Times,serif" font-size="14.00">updated_at :datetime</text>
<text text-anchor="start" x="239.5" y="-38.3" font-family="Times,serif" font-size="14.00">username :string(30)</text>
<text text-anchor="start" x="239.5" y="-23.3" font-family="Times,serif" font-size="14.00">bet :integer</text>
</g>
<!-- User -->
<g id="node3" class="node"><title>User</title>
<path fill="none" stroke="black" d="M392.5,-15.5C392.5,-15.5 523.5,-15.5 523.5,-15.5 529.5,-15.5 535.5,-21.5 535.5,-27.5 535.5,-27.5 535.5,-124.5 535.5,-124.5 535.5,-130.5 529.5,-136.5 523.5,-136.5 523.5,-136.5 392.5,-136.5 392.5,-136.5 386.5,-136.5 380.5,-130.5 380.5,-124.5 380.5,-124.5 380.5,-27.5 380.5,-27.5 380.5,-21.5 386.5,-15.5 392.5,-15.5"/>
<text text-anchor="middle" x="458" y="-121.3" font-family="Times,serif" font-size="14.00">User</text>
<polyline fill="none" stroke="black" points="380.5,-113.5 535.5,-113.5 "/>
<text text-anchor="start" x="388.5" y="-98.3" font-family="Times,serif" font-size="14.00">id :INTEGER</text>
<text text-anchor="start" x="388.5" y="-83.3" font-family="Times,serif" font-size="14.00">name :varchar</text>
<text text-anchor="start" x="388.5" y="-68.3" font-family="Times,serif" font-size="14.00">email :varchar</text>
<text text-anchor="start" x="388.5" y="-53.3" font-family="Times,serif" font-size="14.00">created_at :datetime</text>
<text text-anchor="start" x="388.5" y="-38.3" font-family="Times,serif" font-size="14.00">updated_at :datetime</text>
<text text-anchor="start" x="388.5" y="-23.3" font-family="Times,serif" font-size="14.00">password_digest :varchar</text>
</g>
<!-- ApplicationRecord -->
<g id="node4" class="node"><title>ApplicationRecord</title>
<ellipse fill="none" stroke="black" cx="631" cy="-76" rx="77.0154" ry="18"/>
<text text-anchor="middle" x="631" y="-72.3" font-family="Times,serif" font-size="14.00">ApplicationRecord</text>
</g>
<!-- DisabilityTool -->
<g id="node5" class="node"><title>DisabilityTool</title>
<path fill="none" stroke="black" d="M738.5,-0.5C738.5,-0.5 845.5,-0.5 845.5,-0.5 851.5,-0.5 857.5,-6.5 857.5,-12.5 857.5,-12.5 857.5,-139.5 857.5,-139.5 857.5,-145.5 851.5,-151.5 845.5,-151.5 845.5,-151.5 738.5,-151.5 738.5,-151.5 732.5,-151.5 726.5,-145.5 726.5,-139.5 726.5,-139.5 726.5,-12.5 726.5,-12.5 726.5,-6.5 732.5,-0.5 738.5,-0.5"/>
<text text-anchor="middle" x="792" y="-136.3" font-family="Times,serif" font-size="14.00">DisabilityTool</text>
<polyline fill="none" stroke="black" points="726.5,-128.5 857.5,-128.5 "/>
<text text-anchor="start" x="734.5" y="-113.3" font-family="Times,serif" font-size="14.00">id :INTEGER</text>
<text text-anchor="start" x="734.5" y="-98.3" font-family="Times,serif" font-size="14.00">notes :varchar</text>
<text text-anchor="start" x="734.5" y="-83.3" font-family="Times,serif" font-size="14.00">condition :varchar</text>
<text text-anchor="start" x="734.5" y="-68.3" font-family="Times,serif" font-size="14.00">severity :integer</text>
<text text-anchor="start" x="734.5" y="-53.3" font-family="Times,serif" font-size="14.00">firstname :varchar</text>
<text text-anchor="start" x="734.5" y="-38.3" font-family="Times,serif" font-size="14.00">lastname :varchar</text>
<text text-anchor="start" x="734.5" y="-23.3" font-family="Times,serif" font-size="14.00">created_at :datetime</text>
<text text-anchor="start" x="734.5" y="-8.3" font-family="Times,serif" font-size="14.00">updated_at :datetime</text>
</g>
</g>
</svg>
